<?xml version="1.0" encoding="utf-8"?>
<!-- Generator: Adobe Illustrator 25.2.1, SVG Export Plug-In . SVG Version: 6.00 Build 0)  -->
<svg version="1.1" id="Layer_1" xmlns="http://www.w3.org/2000/svg" xmlns:xlink="http://www.w3.org/1999/xlink" x="0px" y="0px"
	 viewBox="0 0 186.8 186.8" style="enable-background:new 0 0 186.8 186.8;" xml:space="preserve">
<style type="text/css">
	.st0{fill:#8798AA;}
</style>
<g>
	<path class="st0" d="M76.8,0c2.5,0,5.1,0,7.6,0c0.3,0.1,0.6,0.1,0.9,0.2c4.1,0.6,8.3,0.9,12.3,1.9c37.1,8.8,61.5,44.2,56.5,82
		c-1.8,13.3-6.8,25.3-15.1,35.9c-0.5,0.6-1,1.2-1.5,1.9c3,3,5.9,5.9,8.9,8.8c9.7,9.7,19.4,19.4,29,29c2.2,2.2,3.8,4.8,4.5,7.8
		c0.2,0.8,0.3,1.5,0.5,2.3c0,0.9,0,1.8,0,2.7c-0.1,0.3-0.1,0.6-0.2,0.9c-0.9,7.3-7.5,13.2-14.9,13.4c-4.7,0.1-8.7-1.6-12-4.9
		c-11.5-11.5-23-23-34.5-34.6c-2-2-4-4.1-6.1-6.2c-0.2,0.1-0.4,0.2-0.7,0.3c-16.8,7.7-34.1,9.2-51.8,4.2
		c-18-5.1-32.1-15.7-42.3-31.4c-6.2-9.6-9.9-20.1-11.2-31.5c-0.2-1.9-0.4-3.8-0.6-5.8c0-1.8,0-3.7,0-5.5c0.1-0.4,0.1-0.9,0.2-1.3
		c0.2-5,1-9.9,2.3-14.6c5.8-21.2,18.5-37,37.9-47.3C54.5,4,63,1.5,71.8,0.5C73.5,0.3,75.1,0.2,76.8,0z M139.1,74.2
		c0-32.4-26.2-58.6-58.6-58.6c-32.3,0-58.6,26.2-58.6,58.5c0,32.3,26.2,58.6,58.5,58.6C112.9,132.9,139.1,106.6,139.1,74.2z"/>
</g>
</svg>
