<?xml version="1.0" encoding="utf-8"?>
<!-- Generator: Adobe Illustrator 25.2.0, SVG Export Plug-In . SVG Version: 6.00 Build 0)  -->
<svg version="1.1" id="Layer_1" xmlns="http://www.w3.org/2000/svg" xmlns:xlink="http://www.w3.org/1999/xlink" x="0px" y="0px"
	 viewBox="0 0 186.76 186.76" style="enable-background:new 0 0 186.76 186.76;" xml:space="preserve">
<style type="text/css">
	.st0{fill:#494949;}
</style>
<g>
	<path class="st0" d="M76.8,0c2.54,0,5.08,0,7.62,0c0.31,0.06,0.61,0.12,0.92,0.17c4.11,0.6,8.28,0.9,12.31,1.85
		c37.12,8.76,61.53,44.25,56.47,81.99c-1.79,13.31-6.83,25.28-15.07,35.89c-0.48,0.62-0.97,1.23-1.5,1.9
		c2.99,2.98,5.94,5.92,8.88,8.85c9.68,9.68,19.35,19.36,29.04,29.02c2.21,2.21,3.79,4.75,4.52,7.8c0.18,0.77,0.32,1.54,0.47,2.32
		c0,0.89,0,1.78,0,2.67c-0.07,0.31-0.15,0.61-0.19,0.92c-0.93,7.32-7.48,13.21-14.85,13.38c-4.7,0.11-8.66-1.56-11.97-4.87
		c-11.51-11.52-23.03-23.03-34.54-34.56c-2.03-2.04-4.02-4.12-6.07-6.22c-0.15,0.07-0.41,0.18-0.67,0.3
		c-16.75,7.68-34.06,9.21-51.78,4.22c-18.02-5.07-32.11-15.67-42.32-31.36c-6.24-9.59-9.95-20.14-11.23-31.52
		c-0.22-1.92-0.37-3.84-0.55-5.76c0-1.84,0-3.68,0-5.53c0.05-0.44,0.14-0.87,0.16-1.31C6.7,65.2,7.41,60.3,8.72,55.52
		c5.81-21.25,18.5-37.03,37.94-47.33c7.86-4.17,16.29-6.66,25.14-7.65C73.47,0.35,75.13,0.18,76.8,0z M139.13,74.22
		c0-32.36-26.2-58.57-58.56-58.59c-32.33-0.02-58.6,26.22-58.63,58.55c-0.03,32.31,26.22,58.61,58.54,58.64
		C112.87,132.85,139.14,106.6,139.13,74.22z"/>
</g>
</svg>
