<?xml version="1.0" encoding="utf-8"?>
<!-- Generator: Adobe Illustrator 25.2.1, SVG Export Plug-In . SVG Version: 6.00 Build 0)  -->
<svg version="1.1" id="Layer_1" xmlns="http://www.w3.org/2000/svg" xmlns:xlink="http://www.w3.org/1999/xlink" x="0px" y="0px"
	 viewBox="0 0 474.3 72.8" style="enable-background:new 0 0 474.3 72.8;" xml:space="preserve">
<style type="text/css">
	.st0{fill:#14C3F4;}
</style>
<g>
	<path class="st0" d="M0,0h21l7.6,40.1L39.6,0h20.9l11.1,40l7.6-40h20.9L84.4,71.6H62.7L50.1,26.5L37.6,71.6H15.9L0,0z"/>
	<path class="st0" d="M126.3,59.8l-3.5,11.8h-22.6L127.1,0h24.1l26.9,71.6H155l-3.6-11.8 M146.8,44.3l-7.9-25.7l-7.8,25.7H146.8z"/>
	<path class="st0" d="M173.2,0h67.2v17.7h-22.6v53.9h-22.1V17.7h-22.6V0z"/>
	<path class="st0" d="M294.7,42.3l19.4,5.9c-1.3,5.4-3.4,10-6.2,13.6c-2.8,3.6-6.3,6.4-10.4,8.3s-9.4,2.8-15.8,2.8
		c-7.8,0-14.1-1.1-19.1-3.4c-4.9-2.3-9.2-6.2-12.8-11.9c-3.6-5.7-5.4-13-5.4-21.9c0-11.8,3.1-20.9,9.4-27.3
		c6.3-6.4,15.2-9.5,26.7-9.5c9,0,16.1,1.8,21.3,5.5c5.2,3.6,9,9.2,11.5,16.8l-19.5,4.3c-0.7-2.2-1.4-3.8-2.1-4.8
		c-1.2-1.7-2.8-3-4.5-3.9c-1.8-0.9-3.8-1.4-6-1.4c-5,0-8.9,2-11.5,6c-2,3-3,7.7-3,14.1c0,7.9,1.2,13.4,3.6,16.3
		c2.4,2.9,5.8,4.4,10.2,4.4c4.2,0,7.4-1.2,9.6-3.6C292.2,50.3,293.8,46.8,294.7,42.3z"/>
	<path class="st0" d="M325,0h22.1v25h24.2V0h22.2v71.6h-22.2v-29h-24.2v29H325V0z"/>
	<path class="st0" d="M408.4,0h32.9c6.5,0,11.7,0.9,15.7,2.6c4,1.8,7.3,4.3,9.9,7.6c2.6,3.3,4.5,7.1,5.7,11.5
		c1.2,4.4,1.8,9,1.8,13.9c0,7.6-0.9,13.6-2.6,17.8c-1.7,4.2-4.2,7.7-7.3,10.6c-3.1,2.8-6.4,4.7-10,5.7c-4.9,1.3-9.2,2-13.2,2h-32.9
		V0z M430.6,16.2v39.1h5.4c4.6,0,7.9-0.5,9.9-1.5s3.5-2.8,4.6-5.4c1.1-2.6,1.7-6.7,1.7-12.4c0-7.6-1.2-12.8-3.7-15.6
		c-2.5-2.8-6.6-4.2-12.3-4.2H430.6z"/>
</g>
</svg>
