<?xml version="1.0" encoding="utf-8"?>
<!-- Generator: Adobe Illustrator 25.2.1, SVG Export Plug-In . SVG Version: 6.00 Build 0)  -->
<svg version="1.1" id="Layer_1" xmlns="http://www.w3.org/2000/svg" xmlns:xlink="http://www.w3.org/1999/xlink" x="0px" y="0px"
	 viewBox="0 0 409.4 409.5" style="enable-background:new 0 0 409.4 409.5;" xml:space="preserve">
<style type="text/css">
	.st0{fill:#1C2E42;}
	.st1{fill:#2F4559;}
	.st2{fill:#48CFEF;}
	.st3{fill:#14C3F4;}
</style>
<g>
	<path class="st0" d="M218,409.5c-4.5,0-9,0-13.6,0c0-40.1,0-80.2,0-120.4c0-1.7,0.6-3.5-0.8-5c0.6-0.5,1.2-1,1.8-1.5
		c0.6-0.3,1.2-0.5,1.8-0.9c37.2-24.8,74.5-49.7,111.7-74.4c2.8-1.8,2.7-2.6,0-4.4c-21.7-14.3-43.3-28.8-65-43.2
		c-16.1-10.7-32.3-21.4-48.5-32.1c-0.6-0.5-1.2-1-1.8-1.5c1.3-1.5,0.8-3.3,0.8-5c0-40.1,0-80.2,0.1-120.3c8.1-0.3,16.1,0.6,24.2,1.5
		c21.6,2.3,42.1,8.4,61.7,17.6c32.4,15.3,59,37.4,80,66.5c23.3,32.3,35.9,68.4,38.3,108.1c1.2,20.5-0.9,40.8-6,60.7
		c-4.7,18.3-11.8,35.5-21.2,51.8c-12.1,21-27.6,39.3-46.2,54.9c-15.3,12.9-32.3,23.3-50.7,31.2c-15.9,6.8-32.4,11.7-49.6,14.1
		C229.2,408,223.6,408.7,218,409.5z"/>
	<path class="st1" d="M204.4,0.9c0,40.1,0,80.2-0.1,120.3c0,1.7,0.6,3.5-0.8,5c-19.5-12.9-39.1-25.8-58.8-38.8c0,78.8,0,157,0,235.7
		c1.6-1,2.8-1.7,4-2.5c18.3-12.1,36.5-24.2,54.8-36.3c1.3,1.5,0.8,3.3,0.8,5c0,40.1,0,80.2,0,120.4c-4.3,0-8.5,0-12.8,0
		c-2.6-1.6-5.5-0.5-8.2-0.9c-16.7-2.4-33.1-5.7-49-11.6c-25.9-9.6-48.9-23.8-69-42.5c-20.7-19.2-36.7-41.8-48.1-67.7
		c-8-18.3-13.3-37.4-15.9-57.3c-0.5-3.9,0.3-8-1.4-11.7c0-8.5,0-17,0-25.5c1.6-2.6,0.5-5.4,0.9-8.2c2.4-16.7,5.7-33.1,11.6-49
		c9.5-25.9,23.8-48.9,42.4-69C74,45.6,96.6,29.6,122.4,18.2C148.7,6.7,175.9,0.9,204.4,0.9z"/>
	<path class="st2" d="M203.6,284.2c-18.3,12.1-36.5,24.2-54.8,36.3c-1.2,0.8-2.4,1.5-4,2.5c0-78.7,0-156.9,0-235.7
		c19.7,13,39.3,25.9,58.8,38.8c0.6,0.5,1.2,1,1.8,1.5c-1.3,1.1-0.9,2.7-0.9,4.1c0,48.9,0,97.9,0,146.8c0,1.4-0.4,3,0.9,4.1
		C204.8,283.2,204.2,283.7,203.6,284.2z"/>
	<path class="st3" d="M205.3,282.7c-1.3-1.1-0.9-2.7-0.9-4.1c0-48.9,0-97.9,0-146.8c0-1.4-0.4-3,0.9-4.1
		c16.2,10.7,32.3,21.4,48.5,32.1c21.7,14.4,43.3,28.9,65,43.2c2.7,1.8,2.8,2.5,0,4.4c-37.3,24.7-74.5,49.6-111.7,74.4
		C206.5,282.2,205.9,282.4,205.3,282.7z"/>
</g>
</svg>
